<svg width="144" height="144" viewBox="0 0 144 144" fill="none" xmlns="http://www.w3.org/2000/svg">
<g clip-path="url(#clip0_1_11)">
<g clip-path="url(#clip1_1_11)">
<path d="M126 72V47.94C125.996 45.8464 125.439 43.791 124.386 41.9819C123.332 40.1728 121.819 38.6742 120 37.638L78 13.59C76.1719 12.5484 74.1041 12.0006 72 12.0006C69.8959 12.0006 67.8281 12.5484 66 13.59L24 37.638C20.286 39.768 18 43.698 18 47.946V96.054C18 100.308 20.286 104.232 24 106.356L66 130.404C69.72 132.528 74.28 132.528 78 130.404" stroke="black" stroke-width="2" stroke-linecap="round" stroke-linejoin="round"/>
<path d="M72 132V72" stroke="black" stroke-width="2" stroke-linecap="round" stroke-linejoin="round"/>
<path d="M72 72L124.38 41.76" stroke="black" stroke-width="2" stroke-linecap="round" stroke-linejoin="round"/>
<path d="M19.62 41.76L72 72" stroke="black" stroke-width="2" stroke-linecap="round" stroke-linejoin="round"/>
<path d="M114 135C115.232 129.908 117.844 125.253 121.548 121.548C125.253 117.844 129.908 115.232 135 114C129.908 112.768 125.253 110.156 121.548 106.452C117.844 102.747 115.232 98.0925 114 93C112.768 98.0925 110.156 102.747 106.452 106.452C102.747 110.156 98.0925 112.768 93 114C98.0925 115.232 102.747 117.844 106.452 121.548C110.156 125.253 112.768 129.908 114 135Z" stroke="black" stroke-width="2" stroke-linecap="round" stroke-linejoin="round"/>
</g>
<g clip-path="url(#clip2_1_11)">
<path d="M61.3333 50.6667V34.6667C61.3333 33.2522 61.8952 31.8956 62.8954 30.8954C63.8956 29.8952 65.2522 29.3333 66.6667 29.3333C68.0812 29.3333 69.4377 29.8952 70.4379 30.8954C71.4381 31.8956 72 33.2522 72 34.6667V50.6667" stroke="black" stroke-width="2" stroke-linecap="round" stroke-linejoin="round"/>
<path d="M61.3333 42.6667H72" stroke="black" stroke-width="2" stroke-linecap="round" stroke-linejoin="round"/>
<path d="M82.6667 29.3333V50.6667" stroke="black" stroke-width="2" stroke-linecap="round" stroke-linejoin="round"/>
</g>
</g>
<defs>
<clipPath id="clip0_1_11">
<rect width="144" height="144" fill="white"/>
</clipPath>
<clipPath id="clip1_1_11">
<rect width="144" height="144" fill="white"/>
</clipPath>
<clipPath id="clip2_1_11">
<rect width="64" height="64" fill="white" transform="translate(40 8)"/>
</clipPath>
</defs>
</svg>
